<?xml version="1.0" standalone="no"?>
<!DOCTYPE svg PUBLIC "-//W3C//DTD SVG 20010904//EN"
 "http://www.w3.org/TR/2001/REC-SVG-20010904/DTD/svg10.dtd">
<svg version="1.0" xmlns="http://www.w3.org/2000/svg"
 width="512.000000pt" height="512.000000pt" viewBox="0 0 512.000000 512.000000"
 preserveAspectRatio="xMidYMid meet">
<metadata>
Created by potrace 1.14, written by Peter Selinger 2001-2017
</metadata>
<g transform="translate(0.000000,512.000000) scale(0.100000,-0.100000)"
fill="#000000" stroke="none">
<path d="M0 2560 l0 -2560 2560 0 2560 0 0 2560 0 2560 -2560 0 -2560 0 0
-2560z m4225 2239 c152 -33 296 -147 373 -296 52 -101 80 -205 92 -343 20
-248 -30 -516 -158 -835 -53 -132 -236 -509 -336 -692 l-45 -83 300 0 299 0 0
-200 0 -200 -570 0 -570 0 0 51 c0 47 9 67 104 233 369 643 566 1183 566 1556
0 199 -72 335 -204 385 -76 29 -225 6 -403 -62 -10 -4 -13 39 -13 196 l0 202
54 24 c169 75 352 98 511 64z m-3143 -24 c311 -47 536 -239 609 -520 30 -117
30 -317 -1 -440 -76 -303 -308 -505 -610 -530 -36 -3 -84 -8 -107 -11 l-43 -5
0 -560 0 -559 -205 0 -205 0 0 1320 0 1320 233 0 c152 0 265 -5 329 -15z
m1348 -550 l0 -565 205 0 205 0 0 565 0 565 205 0 205 0 0 -1320 0 -1320 -205
0 -205 0 0 565 0 565 -205 0 -205 0 0 -565 0 -565 -205 0 -205 0 0 1320 0
1320 205 0 205 0 0 -565z m630 -3014 l225 -221 -225 -221 c-124 -121 -295
-287 -381 -369 l-155 -149 -377 365 c-207 201 -377 369 -377 374 0 5 170 173
377 374 l377 365 155 -149 c86 -82 257 -248 381 -369z"/>
<path d="M930 4035 l0 -378 70 6 c118 10 214 69 262 161 42 83 59 233 37 338
-16 75 -41 120 -95 167 -52 45 -111 67 -210 77 l-64 7 0 -378z"/>
</g>
</svg>
